<svg width="14" height="14" viewBox="0 0 14 14" fill="none" xmlns="http://www.w3.org/2000/svg">
<g clip-path="url(#clip0_214_5)">
<path d="M7 0.875C7.46413 0.875 7.90925 1.05937 8.23744 1.38756C8.56563 1.71575 8.75 2.16087 8.75 2.625V6.125H5.25V2.625C5.25 2.16087 5.43437 1.71575 5.76256 1.38756C6.09075 1.05937 6.53587 0.875 7 0.875V0.875ZM9.625 6.125V2.625C9.625 1.92881 9.34844 1.26113 8.85616 0.768845C8.36387 0.276562 7.69619 0 7 0C6.30381 0 5.63613 0.276562 5.14384 0.768845C4.65156 1.26113 4.375 1.92881 4.375 2.625V6.125C3.91087 6.125 3.46575 6.30937 3.13756 6.63756C2.80937 6.96575 2.625 7.41087 2.625 7.875V12.25C2.625 12.7141 2.80937 13.1592 3.13756 13.4874C3.46575 13.8156 3.91087 14 4.375 14H9.625C10.0891 14 10.5342 13.8156 10.8624 13.4874C11.1906 13.1592 11.375 12.7141 11.375 12.25V7.875C11.375 7.41087 11.1906 6.96575 10.8624 6.63756C10.5342 6.30937 10.0891 6.125 9.625 6.125V6.125Z" fill="black"/>
</g>
<defs>
<clipPath id="clip0_214_5">
<rect width="14" height="14" fill="white"/>
</clipPath>
</defs>
</svg>
